<svg width="17" height="16" viewBox="0 0 17 16" fill="none" xmlns="http://www.w3.org/2000/svg">
<path d="M7.75001 14.75C7.75001 14.3358 8.08579 14 8.50001 14H14.5C14.6381 14 14.75 13.8881 14.75 13.75L14.75 1.75C14.75 1.61193 14.6381 1.5 14.5 1.5L8.5 1.5C8.08579 1.5 7.75001 1.16421 7.75001 0.750001C7.75001 0.335788 8.08579 0 8.5 0H14.5C15.4665 0 16.25 0.783502 16.25 1.75V13.75C16.25 14.7165 15.4665 15.5 14.5 15.5H8.50001C8.08579 15.5 7.75001 15.1642 7.75001 14.75Z" fill="white"/>
<path d="M12.1116 8.86522C12.1116 9.4175 11.6639 9.86522 11.1116 9.86522H6.25562C6.23269 10.2206 6.20399 10.5758 6.16951 10.9305L6.13985 11.2357C6.09162 11.732 5.56466 12.0291 5.11504 11.8137C3.28712 10.9376 1.63234 9.73887 0.230282 8.275L0.200325 8.24372C-0.0667749 7.96485 -0.0667748 7.52506 0.200325 7.24619L0.230283 7.21491C1.63234 5.75104 3.28712 4.55226 5.11504 3.67625C5.56466 3.46077 6.09162 3.75796 6.13985 4.2542L6.16951 4.5594C6.20399 4.91413 6.23269 5.26928 6.25562 5.6247L11.1116 5.62471C11.6639 5.62471 12.1116 6.07242 12.1116 6.6247V8.86522Z" fill="white"/>
</svg>
