<svg width="210" height="56" viewBox="0 0 210 56" fill="none" xmlns="http://www.w3.org/2000/svg">
<mask id="mask0_353_14" style="mask-type:alpha" maskUnits="userSpaceOnUse" x="0" y="0" width="56" height="56">
<rect width="55.4993" height="55.4993" rx="15.043" fill="black"/>
</mask>
<g mask="url(#mask0_353_14)">
<rect width="55.4993" height="55.4993" rx="15.043" fill="#070016"/>
<rect x="17.3369" y="-19.5479" width="22.3341" height="81.6791" transform="rotate(13.9671 17.3369 -19.5479)" fill="#CA33FF"/>
<rect x="42.0576" y="-8.44031" width="22.3341" height="81.6791" transform="rotate(24.9083 42.0576 -8.44031)" fill="#3733FF"/>
</g>
<path d="M94.1331 17.692V39.0801H87.0445V23.2835H82.1558L82.0947 25.7584C82.0132 28.8138 81.7688 31.3193 81.3614 33.2747C80.954 35.2302 80.2411 36.7579 79.2226 37.8579C78.2041 38.9375 76.7477 39.4773 74.8533 39.4773C73.8959 39.4773 72.8775 39.3449 71.7979 39.0801L72.1645 33.3053C72.4293 33.3664 72.6941 33.397 72.9589 33.397C73.7126 33.397 74.283 33.0914 74.67 32.4803C75.0774 31.8692 75.3524 31.0545 75.495 30.036C75.6375 29.0175 75.7394 27.6833 75.8005 26.0334L76.0755 17.692H94.1331ZM115.694 33.6414V39.0801H97.9109V17.692H115.296V23.1307H105V25.6361H114.044V30.8304H105V33.6414H115.694ZM103.227 16.1948C102.433 16.1948 101.771 15.9504 101.241 15.4615C100.732 14.9523 100.477 14.3005 100.477 13.5061C100.477 12.7116 100.732 12.0598 101.241 11.5506C101.771 11.0413 102.433 10.7867 103.227 10.7867C104.022 10.7867 104.674 11.0413 105.183 11.5506C105.712 12.0598 105.977 12.7116 105.977 13.5061C105.977 14.3005 105.712 14.9523 105.183 15.4615C104.674 15.9504 104.022 16.1948 103.227 16.1948ZM110.01 16.1948C109.216 16.1948 108.554 15.9504 108.024 15.4615C107.515 14.9523 107.261 14.3005 107.261 13.5061C107.261 12.7116 107.515 12.0598 108.024 11.5506C108.554 11.0413 109.216 10.7867 110.01 10.7867C110.805 10.7867 111.457 11.0413 111.966 11.5506C112.496 12.0598 112.76 12.7116 112.76 13.5061C112.76 14.3005 112.496 14.9523 111.966 15.4615C111.457 15.9504 110.805 16.1948 110.01 16.1948ZM128.915 17.692C130.891 17.692 132.613 18.0179 134.079 18.6697C135.546 19.3216 136.676 20.2586 137.471 21.4808C138.265 22.7029 138.662 24.1288 138.662 25.7584C138.662 27.3879 138.265 28.8138 137.471 30.036C136.676 31.2582 135.546 32.1952 134.079 32.847C132.613 33.4988 130.891 33.8247 128.915 33.8247H125.829V39.0801H118.619V17.692H128.915ZM128.457 28.2638C129.435 28.2638 130.168 28.0499 130.657 27.6222C131.146 27.1741 131.39 26.5528 131.39 25.7584C131.39 24.964 131.146 24.3529 130.657 23.9251C130.168 23.477 129.435 23.2529 128.457 23.2529H125.829V28.2638H128.457ZM161.931 17.692V39.0801H154.72V31.197H148.059V39.0801H140.848V17.692H148.059V25.2695H154.72V17.692H161.931ZM187.121 17.692L178.536 33.7942C177.517 35.7089 176.264 37.1653 174.777 38.1634C173.311 39.1616 171.691 39.6606 169.919 39.6606C168.554 39.6606 167.169 39.3754 165.764 38.8051L167.444 33.6108C168.341 33.8553 169.074 33.9775 169.644 33.9775C170.174 33.9775 170.622 33.8858 170.989 33.7025C171.376 33.5192 171.742 33.2136 172.089 32.7859L163.9 17.692H171.508L175.755 26.7056L180.155 17.692H187.121ZM199.046 39.5689C196.785 39.5689 194.748 39.1004 192.935 38.1634C191.122 37.2061 189.697 35.8821 188.658 34.1914C187.639 32.4803 187.13 30.5452 187.13 28.386C187.13 26.2269 187.639 24.3019 188.658 22.6113C189.697 20.9002 191.122 19.5762 192.935 18.6392C194.748 17.6818 196.785 17.2031 199.046 17.2031C201.124 17.2031 202.977 17.5698 204.607 18.3031C206.237 19.0364 207.581 20.0956 208.64 21.4808L204.088 25.5445C202.764 23.8742 201.205 23.039 199.413 23.039C197.905 23.039 196.693 23.5279 195.777 24.5056C194.86 25.463 194.402 26.7565 194.402 28.386C194.402 30.0156 194.86 31.3193 195.777 32.297C196.693 33.2544 197.905 33.7331 199.413 33.7331C201.205 33.7331 202.764 32.8979 204.088 31.2276L208.64 35.2913C207.581 36.6765 206.237 37.7357 204.607 38.469C202.977 39.2023 201.124 39.5689 199.046 39.5689Z" fill="white"/>
</svg>
